<?xml version="1.0" encoding="utf-8"?>
<!-- Generator: Adobe Illustrator 25.2.1, SVG Export Plug-In . SVG Version: 6.00 Build 0)  -->
<svg version="1.1" id="Layer_1" xmlns="http://www.w3.org/2000/svg" xmlns:xlink="http://www.w3.org/1999/xlink" x="0px" y="0px"
	 viewBox="0 0 52 53.6" style="enable-background:new 0 0 52 53.6;" xml:space="preserve">
<style type="text/css">
	.st0{fill:#FFFFFF;}
</style>
<g>
	<path class="st0" d="M49,18H14.9c-0.3-1.2-1-2.3-2-3l24.8-9.4C38.1,5.8,38.5,6,39,6c1.1,0,2-0.9,2-2s-0.9-2-2-2c-1,0-1.8,0.7-2,1.7
		L9.8,14c-2.3,0.1-4.3,1.8-4.7,4H3c-0.5,0-1,0.5-1,1v30c0,0.5,0.5,1,1,1h46c0.5,0,1-0.5,1-1V19C50,18.5,49.5,18,49,18z M48,48H4V20
		h2h8h34V48z"/>
	<path class="st0" d="M23,27.3V28h0.7C23.5,27.8,23.3,27.5,23,27.3z"/>
	<path class="st0" d="M11,28v-0.9c-0.3,0.3-0.6,0.6-0.9,0.9H11z"/>
	<path class="st0" d="M23,40v0.7c0.3-0.2,0.5-0.5,0.7-0.7H23z"/>
	<path class="st0" d="M11,40.9V40h-0.9C10.4,40.3,10.7,40.6,11,40.9z"/>
	<path class="st0" d="M21,40h-3v3c1.1-0.1,2.1-0.4,3-0.9V40z"/>
	<path class="st0" d="M13,42.2c0.9,0.5,1.9,0.7,3,0.9v-3h-3V42.2z"/>
	<path class="st0" d="M8.8,38H11v-3H7.9C8,36.1,8.3,37.1,8.8,38z"/>
	<rect x="13" y="35" class="st0" width="3" height="3"/>
	<rect x="18" y="35" class="st0" width="3" height="3"/>
	<path class="st0" d="M25.9,35H23v3h2C25.5,37.1,25.8,36.1,25.9,35z"/>
	<path class="st0" d="M25.1,30h-2v3H26C25.8,31.9,25.5,30.9,25.1,30z"/>
	<path class="st0" d="M7.9,33H11v-3H8.8C8.3,30.9,8,31.9,7.9,33z"/>
	<rect x="13" y="30" class="st0" width="3" height="3"/>
	<rect x="18" y="30" class="st0" width="3" height="3"/>
	<path class="st0" d="M21,25.9c-0.9-0.5-1.9-0.8-3-0.9v3h3V25.9z"/>
	<path class="st0" d="M13,28h3v-3c-1.1,0.1-2.1,0.4-3,0.9V28z"/>
	<path class="st0" d="M32.3,25.7c0.2,0.2,0.4,0.3,0.7,0.3c0.1,0,0.3,0,0.4-0.1c0.1,0,0.2-0.1,0.3-0.2s0.2-0.2,0.2-0.3
		c0-0.1,0.1-0.3,0.1-0.4c0-0.3-0.1-0.5-0.3-0.7S33.1,24,32.8,24c-0.1,0-0.1,0-0.2,0.1c-0.1,0-0.1,0-0.2,0.1c-0.1,0-0.1,0.1-0.1,0.1
		C32.1,24.5,32,24.7,32,25c0,0.1,0,0.3,0.1,0.4C32.1,25.5,32.2,25.6,32.3,25.7z"/>
	<path class="st0" d="M36.6,25.9C36.7,26,36.9,26,37,26c0.3,0,0.5-0.1,0.7-0.3c0.2-0.2,0.3-0.4,0.3-0.7c0-0.3-0.1-0.5-0.3-0.7
		S37.1,24,36.8,24c-0.1,0-0.1,0-0.2,0.1c-0.1,0-0.1,0-0.2,0.1c-0.1,0-0.1,0.1-0.1,0.1C36.1,24.5,36,24.7,36,25s0.1,0.5,0.3,0.7
		C36.4,25.8,36.5,25.9,36.6,25.9z"/>
	<path class="st0" d="M40.6,25.9C40.7,26,40.9,26,41,26c0.3,0,0.5-0.1,0.7-0.3c0.2-0.2,0.3-0.4,0.3-0.7c0-0.3-0.1-0.5-0.3-0.7
		c-0.4-0.4-1-0.4-1.4,0C40.1,24.5,40,24.7,40,25s0.1,0.5,0.3,0.7C40.4,25.8,40.5,25.9,40.6,25.9z"/>
	<path class="st0" d="M38,42c2.8,0,5-2.2,5-5s-2.2-5-5-5s-5,2.2-5,5S35.3,42,38,42z"/>
</g>
</svg>
